<mxfile host="app.diagrams.net" modified="2023-08-19T12:27:42.502Z" agent="Mozilla/5.0 (Windows NT 10.0; Win64; x64) AppleWebKit/537.36 (KHTML, like Gecko) Chrome/116.0.0.0 Safari/537.36" version="21.6.8" etag="bLEx4EiXip6tUeD1qBS9" type="github">
  <diagram name="第 1 页" id="gYALOFsOwTMyq_LpYY_o">
    <mxGraphModel>
      <root>
        <mxCell id="0" />
        <mxCell id="1" parent="0" />
      </root>
    </mxGraphModel>
  </diagram>
</mxfile>
